<?xml version="1.0" encoding="UTF-8"?>
<svg width="53px" height="45px" viewBox="0 0 53 45" version="1.1" xmlns="http://www.w3.org/2000/svg" xmlns:xlink="http://www.w3.org/1999/xlink">
    <!-- Generator: Sketch 57.1 (83088) - https://sketch.com -->
    <title>monthly-heart</title>
    <desc>Created with Sketch.</desc>
    <defs>
        <polygon id="path-1" points="0.167028011 0.124444444 14.9905116 0.124444444 14.9905116 9.88692999 0.167028011 9.88692999"></polygon>
        <polygon id="path-3" points="0.211629785 0.200866667 10.7916735 0.200866667 10.7916735 11.9115333 0.211629785 11.9115333"></polygon>
        <polygon id="path-5" points="0 0.14341192 2.89404015 0.14341192 2.89404015 4.86865108 0 4.86865108"></polygon>
    </defs>
    <g id="Page-1" stroke="none" stroke-width="1" fill="none" fill-rule="evenodd">
        <g id="step-1" transform="translate(-869.000000, -674.000000)">
            <g id="Group-10">
                <g id="current-copy" transform="translate(831.000000, 282.000000)">
                    <g id="monthly-heart" transform="translate(38.000000, 392.000000)">
                        <path d="M17.12648,6.20542297 C16.5022305,6.27314174 15.734465,6.2751801 15.0075742,6.44798752 C10.6385092,7.48845582 7.81087929,10.1847499 6.61869677,14.4970086 C5.76146077,17.5978035 6.30623141,20.6256704 7.45572244,23.5511665 C8.79255644,26.9529588 10.9575599,29.8159453 13.5090576,32.4001297 C17.5191054,36.4621234 22.2006359,39.616595 27.1519402,42.4062006 C27.4566848,42.5778756 27.6635568,42.5257842 27.9183432,42.364754 C30.244121,40.8939657 32.6341631,39.5153566 34.8870475,37.9412915 C39.025624,35.0495416 42.7406918,31.7011995 45.5256301,27.4299345 C47.2376042,24.8038505 48.3916369,21.9823106 48.6957002,18.8373514 C49.078107,14.8820317 47.9340659,11.4820513 44.8841224,8.87816272 C41.6811254,6.14336631 38.0010282,5.53276497 34.033899,6.93221069 C31.6315944,7.77948799 29.8403686,9.42331013 28.5010366,11.5629061 C28.245569,11.9710306 27.9251557,12.1759988 27.4389723,12.1696572 C26.8188103,12.1615038 26.5828717,11.6981172 26.3035604,11.2764037 C24.1605839,8.0383594 21.128807,6.38570437 17.12648,6.20542297 M27.504145,9.2634123 C28.6461423,7.89635382 29.8544477,6.69644066 31.3593226,5.81088754 C34.4237994,4.00784702 37.6633567,3.5600878 41.1075153,4.42797516 C46.1787191,5.70579888 50.1506171,10.1811262 50.8461704,15.3132576 C51.3775432,19.2325662 50.4973719,22.8601633 48.74475,26.3235593 C46.5690737,30.6235878 43.3113498,34.0362514 39.67349,37.1157567 C36.1482631,40.0999122 32.2808229,42.5853495 28.2246774,44.7879082 C27.7512106,45.0447412 27.3265666,45.0836965 26.8387936,44.8196159 C21.3679248,41.8574294 16.2676544,38.3833886 11.8876894,33.9399956 C8.85386869,30.8623022 6.34642499,27.4195162 4.97189531,23.2700996 C3.94707251,20.1772317 3.66571743,17.0420113 4.45210373,13.8288803 C5.60976973,9.09943776 9.94182039,5.06258382 14.7732252,4.22957503 C19.2458399,3.45862289 23.0374345,4.74777082 26.2604148,7.86147526 C26.4763701,8.07006718 26.6616693,8.31036689 26.8612747,8.53617162 C27.0597448,8.76061743 27.2582148,8.98506325 27.504145,9.2634123" id="Fill-1" fill="#172A2F"></path>
                        <g id="Group-5" transform="translate(1.000000, 0.000000)">
                            <mask id="mask-2" fill="white">
                                <use xlink:href="#path-1"></use>
                            </mask>
                            <g id="Clip-4"></g>
                            <path d="M14.9905116,1.16677778 C14.9979318,1.75833333 14.4758864,2.21877778 13.7383864,2.25011111 C12.0665682,2.32055556 10.4338409,2.58366667 8.89020455,3.23744444 C6.12725,4.40833333 4.01270455,6.28811111 2.53702273,8.85544444 C2.40838636,9.07922222 2.27725,9.30922222 2.10634091,9.50144444 C1.74679545,9.90522222 1.21838636,9.99344444 0.772931818,9.75833333 C0.295659091,9.50633333 0.00225,8.98077778 0.266795455,8.50166667 C0.827931818,7.485 1.39702273,6.44388889 2.14406818,5.559 C4.67065909,2.56588889 7.89452273,0.713666667 11.8749773,0.231888889 C12.5829318,0.146111111 13.3038409,0.109888889 14.0165682,0.129666667 C14.5661136,0.144777778 14.9840682,0.652555556 14.9905116,1.16677778" id="Fill-3" fill="#FF6114" mask="url(#mask-2)"></path>
                        </g>
                        <g id="Group-8" transform="translate(42.000000, 27.000000)">
                            <mask id="mask-4" fill="white">
                                <use xlink:href="#path-3"></use>
                            </mask>
                            <g id="Clip-7"></g>
                            <path d="M9.74665102,0.200866667 C10.1493857,0.518422222 10.583549,0.699755556 10.7121816,1.00686667 C10.8435082,1.31975556 10.8134265,1.85975556 10.6143041,2.12175556 C9.18093673,4.00731111 7.75767143,5.90886667 6.18893673,7.68242222 C4.97691633,9.05286667 3.57767143,10.2650889 2.21681429,11.4995333 C1.93575306,11.7544222 1.44591633,11.9388667 1.07303878,11.9082 C0.253202041,11.8408667 -0.0759,10.7728667 0.505528571,10.1575333 C0.898834694,9.74108889 1.36420204,9.39197778 1.78130408,8.99642222 C4.35889592,6.55042222 6.7925898,3.98264444 8.76226327,1.01264444 C8.96430408,0.7082 9.34818163,0.521755556 9.74665102,0.200866667" id="Fill-6" fill="#FF6114" mask="url(#mask-4)"></path>
                        </g>
                        <g id="Group-11" transform="translate(0.000000, 12.000000)">
                            <mask id="mask-6" fill="white">
                                <use xlink:href="#path-5"></use>
                            </mask>
                            <g id="Clip-10"></g>
                            <path d="M0.00425454545,3.0055 C0.0667090909,2.42368182 0.113072727,1.8405 0.195709091,1.26072727 C0.296618182,0.551636364 0.972436364,0.0675454545 1.70252727,0.153227273 C2.51961818,0.249363636 2.9808,0.818227273 2.88043636,1.55254545 C2.7828,2.26368182 2.71652727,2.97822727 2.6538,3.69231818 C2.58889091,4.43254545 2.03689091,4.90140909 1.24434545,4.86686364 C0.479345455,4.83368182 -0.000927272727,4.36004545 -0.000110134629,3.63027273 C0.000163636364,3.42277273 0.0236181818,3.2155 0.0364363636,3.00822727 C0.0258,3.00731818 0.0151636364,3.00640909 0.00425454545,3.0055" id="Fill-9" fill="#FF6114" mask="url(#mask-6)"></path>
                        </g>
                        <path d="M41,41.0166304 C40.8284715,41.2607829 40.7095044,41.5545288 40.4736821,41.7388478 C40.0025067,42.1076867 39.4787699,42.4307469 38.9552678,42.746579 C38.3153798,43.132886 37.6496803,43.0690369 37.2449106,42.6130581 C36.834744,42.1510559 36.9403361,41.5954886 37.5574632,41.1776586 C38.0896473,40.8172526 38.6298095,40.46026 39.2039959,40.1524592 C39.9684826,39.7424598 40.8953465,40.2026551 41,41.0166304" id="Fill-12" fill="#FF6114"></path>
                        <path d="M32.8855186,37.35309 C32.8673969,36.7550728 32.4551866,36.5413469 32.005586,36.795233 C31.4591836,37.1033584 30.9400785,37.4601838 30.4097333,37.7973908 C30.0819377,38.0058082 29.8878754,38.2827749 30.1310268,38.6550643 C30.3670671,39.016275 30.6980741,38.9816541 31.0270165,38.7649277 C31.5360286,38.4300288 32.0526105,38.1052854 32.5469418,37.7498448 C32.7130187,37.6302875 32.8217487,37.4304099 32.8855186,37.35309 M34.7979268,36.0871215 C35.012634,35.9604092 35.1837575,35.8814737 35.3301071,35.7699947 C37.6648187,33.9914069 39.8224427,32.021943 41.6364435,29.6998082 C42.2475333,28.9173773 42.7808605,28.0728597 43.3430906,27.2521151 C43.5600917,26.9352191 43.538988,26.6127837 43.2077517,26.4073668 C42.8799561,26.2040271 42.587257,26.3178142 42.3879187,26.6543287 C42.3294248,26.7526519 42.2608378,26.8454357 42.2005087,26.9430665 C40.7168268,29.3482913 38.7865263,31.3558382 36.6763856,33.2002055 C35.9863863,33.8033004 35.2498212,34.3540025 34.5719795,34.9704842 C34.416225,35.1121988 34.3464911,35.4325569 34.367136,35.6585156 C34.3806699,35.8050771 34.6300147,35.9299429 34.7979268,36.0871215 M17.0382447,6 C21.0812092,6.18372123 24.1437691,7.86790947 26.3085042,11.1677367 C26.5906515,11.5974966 26.8289857,12.0697248 27.4554445,12.0780338 C27.9465643,12.0847272 28.2702309,11.8756174 28.5282924,11.4597057 C29.8812232,9.27928552 31.6906362,7.6040987 34.1173324,6.74065507 C38.1247417,5.31450746 41.8422046,5.93675927 45.0777231,8.72373651 C48.1586341,11.3773081 49.3142911,14.8421613 48.928231,18.8731806 C48.620851,22.0779159 47.4551009,24.9532917 45.7257443,27.6294822 C42.9125292,31.9822445 39.1597406,35.3947048 34.9791433,38.3413995 C32.7033844,39.9454982 30.2890752,41.3504117 27.9396827,42.8492631 C27.6823093,43.0133658 27.4733368,43.0664511 27.165498,42.8915005 C22.1639208,40.0488991 17.4350861,36.8340083 13.384093,32.6945105 C10.8066888,30.0610189 8.61970311,27.1436365 7.26929563,23.6767061 C6.10813329,20.6953906 5.55783135,17.6097509 6.42377126,14.4500227 C7.62805855,10.0554846 10.4843986,7.30751355 14.8978248,6.24719276 C15.632096,6.07108812 16.407657,6.06901087 17.0382447,6" id="Fill-14" fill="#40D7D4"></path>
                        <path d="M34.4285427,36 C34.2630959,35.8392968 34.0168496,35.7116309 34.0034962,35.5620188 C33.9831265,35.3307572 34.0519306,35.0032153 34.2056083,34.8583228 C34.8744115,34.228017 35.6011551,33.6649658 36.2819538,33.0483468 C38.3639576,31.1626209 40.2685191,29.1102922 41.7324174,26.6511318 C41.791942,26.5510758 41.8596145,26.4564473 41.9173285,26.3556833 C42.1140087,26.0118587 42.402805,25.89552 42.7262296,26.1034194 C43.0530492,26.3132067 43.0738715,26.6431085 42.8597639,26.9671107 C42.3050307,27.806024 41.7790413,28.6697152 41.1758735,29.4694556 C39.386061,31.8438987 37.257207,33.8572905 34.9536268,35.6757618 C34.8092287,35.7897407 34.6406133,35.8704463 34.4285427,36" id="Fill-16" fill="#DAE6F2"></path>
                        <path d="M33,36.5925924 C32.933193,36.6617042 32.8192848,36.8403634 32.6452983,36.9472288 C32.1274241,37.2649368 31.5862397,37.5552064 31.0529855,37.8545534 C30.7083769,38.0482727 30.3616055,38.0792183 30.1143236,37.7563527 C29.8595921,37.4235845 30.0628967,37.1760199 30.4063037,36.9897274 C30.961907,36.6883174 31.5057349,36.3693716 32.07816,36.0939559 C32.5491731,35.8670216 32.9810153,36.058059 33,36.5925924" id="Fill-18" fill="#40D7D4"></path>
                    </g>
                </g>
            </g>
        </g>
    </g>
</svg>